<svg width="22" height="21" viewBox="0 0 22 21" fill="none" xmlns="http://www.w3.org/2000/svg">
<path d="M20.7266 7.33594L19.1641 5.8125C18.8125 5.42188 18.1875 5.42188 17.8359 5.8125L8.5 15.1484L4.125 10.8125C3.77344 10.4219 3.1875 10.4219 2.79688 10.8125L1.27344 12.3359C0.882812 12.7266 0.882812 13.3125 1.27344 13.6641L7.83594 20.2266C8.1875 20.6172 8.77344 20.6172 9.125 20.2266L20.6875 8.66406C21.0781 8.3125 21.0781 7.72656 20.7266 7.33594ZM8.03125 11.4766C8.26562 11.75 8.69531 11.75 8.92969 11.4766L17.0547 3.35156C17.2891 3.11719 17.2891 2.72656 17.0547 2.45312L15.2969 0.695312C15.0234 0.460938 14.6328 0.460938 14.3984 0.695312L8.5 6.63281L6.3125 4.44531C6.07812 4.21094 5.6875 4.21094 5.45312 4.44531L3.65625 6.20312C3.42188 6.47656 3.42188 6.86719 3.65625 7.10156L8.03125 11.4766Z" fill="#707070"/>
</svg>
