<svg width="27" height="19" viewBox="0 0 27 19" fill="none" xmlns="http://www.w3.org/2000/svg">
<path fill-rule="evenodd" clip-rule="evenodd" d="M2 0C0.895431 0 0 0.895431 0 2V17C0 18.1046 0.895431 19 2 19H25C26.1046 19 27 18.1046 27 17V2C27 0.895431 26.1046 0 25 0H2Z" fill="#ED7839"/>
<path d="M13 15.4414L12.1523 14.6758C11.1862 13.8008 10.4844 13.1536 10.0469 12.7344C9.60938 12.3151 9.11719 11.7956 8.57031 11.1758C8.04167 10.556 7.67708 10 7.47656 9.50781C7.27604 8.9974 7.17578 8.47786 7.17578 7.94922C7.17578 7.05599 7.47656 6.29948 8.07812 5.67969C8.69792 5.0599 9.46354 4.75 10.375 4.75C11.4323 4.75 12.3073 5.16016 13 5.98047C13.6927 5.16016 14.5677 4.75 15.625 4.75C16.5365 4.75 17.293 5.0599 17.8945 5.67969C18.5143 6.29948 18.8242 7.05599 18.8242 7.94922C18.8242 8.66016 18.5872 9.39844 18.1133 10.1641C17.6393 10.9297 17.1198 11.5951 16.5547 12.1602C16.0078 12.7253 15.1055 13.5729 13.8477 14.7031L13 15.4414Z" fill="white"/>
</svg>
