<svg width="36" height="36" viewBox="0 0 36 36" fill="none" xmlns="http://www.w3.org/2000/svg">
<path d="M17.456 5.75797C18.5895 5.75797 19.6778 5.71274 20.7205 5.71274C19.9498 2.22149 18.9522 0.317217 18.1815 0H18.0003H17.8191C17.0484 0.27199 16.0508 2.22173 15.2802 5.71274C16.005 5.71274 16.7305 5.75797 17.4561 5.75797H17.456Z" fill="#333333"/>
<path d="M15.9598 0.090332C12.0605 0.54386 8.5693 2.2213 5.80365 4.71508C7.97988 5.16861 10.7004 5.48581 13.9195 5.66738C14.4186 3.30962 15.0985 1.31459 15.96 0.090332H15.9598Z" fill="#333333"/>
<path d="M29.9698 4.5338C27.2492 2.13079 23.8487 0.498554 20.0403 0.0905762C20.9019 1.31483 21.5366 3.30987 22.0354 5.62204C25.2547 5.44082 27.8844 5.03252 29.9699 4.5338H29.9698Z" fill="#333333"/>
<path d="M23.1688 17.4102H36C35.864 12.8762 34.005 8.75028 31.058 5.62183C28.5191 6.25657 25.3453 6.66456 22.3074 6.89134C22.8517 10.2466 23.1237 14.1003 23.169 17.4102H23.1688Z" fill="#333333"/>
<path d="M20.9925 6.93677C19.7682 6.98199 18.5895 7.02754 17.5013 7.02754C16.7305 7.02754 15.869 7.02754 15.0531 6.98231C14.5543 9.70286 14.1915 13.1938 14.1915 17.4105H21.9448C21.854 13.1481 21.4913 9.65688 20.9925 6.93697V6.93677Z" fill="#333333"/>
<path d="M13.6928 6.93672C10.655 6.7555 7.43582 6.43796 4.71551 5.80322C1.90419 8.88617 0.13602 12.9667 0 17.4102H12.8312C12.8767 14.1458 13.1487 10.2917 13.6927 6.93672H13.6928Z" fill="#333333"/>
<path d="M15.053 29.1533C16.2772 29.108 17.456 29.0625 18.5442 29.0625C19.315 29.0625 20.1313 29.0625 20.9924 29.1077C21.4912 26.3872 21.854 22.8507 21.8991 18.5889L14.1462 18.5892C14.1462 22.8964 14.5089 26.4329 15.0529 29.1534L15.053 29.1533Z" fill="#333333"/>
<path d="M12.8314 18.5892H0.000183105C0.136178 23.1684 2.0404 27.3398 5.03291 30.4682C7.61744 29.8335 10.7456 29.4255 13.7835 29.244C13.1491 25.8438 12.8771 21.899 12.8315 18.5891L12.8314 18.5892Z" fill="#333333"/>
<path d="M23.1688 18.5892C23.1236 21.8989 22.8513 25.7982 22.2621 29.1534C25.2999 29.2894 28.4736 29.6521 31.194 30.2416C34.0505 27.1587 35.864 23.0779 36 18.5439H23.1688V18.5892Z" fill="#333333"/>
<path d="M20.0404 35.909C23.8944 35.4554 27.3401 33.8232 30.0605 31.375C27.8843 30.9215 25.209 30.6042 21.99 30.4683C21.5365 32.7349 20.9018 34.6847 20.0402 35.909H20.0404Z" fill="#333333"/>
<path d="M18.5442 30.3775C17.4107 30.3775 16.3679 30.4227 15.3249 30.4227C16.0956 33.8232 17.0931 35.7275 17.8187 35.9994H17.9999H18.1811C18.9066 35.7274 19.9041 33.8232 20.6749 30.3772C19.9949 30.3775 19.2694 30.3775 18.5442 30.3775L18.5442 30.3775Z" fill="#333333"/>
<path d="M6.12103 31.5564C8.796 33.9142 12.1965 35.5009 15.9598 35.9092C15.1438 34.6849 14.4636 32.7807 14.0103 30.5137C10.8363 30.6949 8.20683 31.0577 6.12111 31.5564H6.12103Z" fill="#333333"/>
</svg>
