<svg width="14" height="10" viewBox="0 0 14 10" fill="none" xmlns="http://www.w3.org/2000/svg">
<path d="M8.23423 10H0.832825V0H7.00066C8.32214 0.00844415 9.58376 0.313975 10.5088 0.849572C11.4338 1.38517 11.9467 2.1071 11.9349 2.857C11.935 3.52706 11.5251 4.17634 10.7754 4.694C11.7016 5.01926 12.4179 5.50561 12.8175 6.08061C13.2171 6.65561 13.2786 7.28848 12.993 7.88494C12.7073 8.4814 12.0897 9.00953 11.2322 9.39066C10.3747 9.77179 9.32316 9.98551 8.23423 10ZM4.53353 5.714V8.572H7.59983C8.20191 8.53245 8.75285 8.36081 9.13484 8.09377C9.51684 7.82673 9.69959 7.48549 9.64402 7.143C9.69956 6.80035 9.51657 6.45898 9.13421 6.19191C8.75184 5.92485 8.20047 5.75331 7.59806 5.714H4.53353ZM4.53353 1.428V4.286H6.48961C7.0789 4.23866 7.61259 4.06303 7.97769 3.79631C8.34279 3.52959 8.51064 3.19272 8.4457 2.857C8.51064 2.52128 8.34279 2.18441 7.97769 1.91769C7.61259 1.65097 7.0789 1.47534 6.48961 1.428H4.53353Z" fill="#474747"/>
</svg>
